<svg xmlns="http://www.w3.org/2000/svg" width="1800" height="1120" viewBox="0 0 1800 1120">
  <defs>
    <filter id="soft-shadow" x="-30%" y="-30%" width="160%" height="160%">
      <feDropShadow dx="0" dy="18" stdDeviation="18" flood-color="#000000" flood-opacity="0.45"/>
    </filter>
    <filter id="red-glow" x="-40%" y="-40%" width="180%" height="180%">
      <feDropShadow dx="0" dy="0" stdDeviation="7" flood-color="#c4333a" flood-opacity="0.55"/>
    </filter>
    <filter id="frost-glow" x="-40%" y="-40%" width="180%" height="180%">
      <feDropShadow dx="0" dy="0" stdDeviation="8" flood-color="#7dd6ff" flood-opacity="0.5"/>
    </filter>
    <filter id="gold-glow" x="-40%" y="-40%" width="180%" height="180%">
      <feDropShadow dx="0" dy="0" stdDeviation="7" flood-color="#d8b66b" flood-opacity="0.42"/>
    </filter>
    <pattern id="grain" width="90" height="90" patternUnits="userSpaceOnUse">
      <path d="M14 22h1M42 11h1M78 35h1M21 73h1M66 82h1M88 9h1" stroke="#ffffff" opacity="0.08"/>
      <path d="M8 47h28M52 58h18M30 38h41" stroke="#ffffff" opacity="0.025"/>
    </pattern>
    <linearGradient id="page-bg" x1="0" x2="1" y1="0" y2="1">
      <stop stop-color="#050506"/>
      <stop offset="0.55" stop-color="#0a0809"/>
      <stop offset="1" stop-color="#030405"/>
    </linearGradient>
    <linearGradient id="iron" x1="0" x2="1">
      <stop stop-color="#09090a"/>
      <stop offset="0.45" stop-color="#151111"/>
      <stop offset="1" stop-color="#070607"/>
    </linearGradient>
    <linearGradient id="stone" x1="0" x2="1">
      <stop stop-color="#061013"/>
      <stop offset="0.48" stop-color="#0e181b"/>
      <stop offset="1" stop-color="#030708"/>
    </linearGradient>
    <linearGradient id="bone" x1="0" x2="1">
      <stop stop-color="#0a0907"/>
      <stop offset="0.48" stop-color="#15120c"/>
      <stop offset="1" stop-color="#060504"/>
    </linearGradient>
    <style>
      .title { font-family: Georgia, "Times New Roman", serif; font-weight: 800; letter-spacing: .18em; }
      .label { font-family: "Segoe UI", sans-serif; font-weight: 800; letter-spacing: .14em; text-transform: uppercase; }
      .mono { font-family: Consolas, "Cascadia Mono", monospace; font-weight: 700; }
      .body { font-family: "Segoe UI", sans-serif; }
      .small { font-size: 20px; opacity: .72; }
      .rune { font-family: Georgia, serif; font-weight: 800; }
      .thin { fill: none; stroke-width: 2; vector-effect: non-scaling-stroke; }
      .hair { fill: none; stroke-width: 1; vector-effect: non-scaling-stroke; }
    </style>
  </defs>

  <rect width="1800" height="1120" fill="url(#page-bg)"/>
  <rect width="1800" height="1120" fill="url(#grain)" opacity=".75"/>
  <text x="72" y="82" fill="#f3e9e2" class="title" font-size="34">RELIQUARY RUNIC IDENTITY DIRECTIONS</text>
  <text x="72" y="120" fill="#a89c96" class="body" font-size="20">Three possible visual languages. Same UX spine, same OLED base, same red-only warning rule.</text>

  <!-- Direction A -->
  <g transform="translate(54 170)" filter="url(#soft-shadow)">
    <rect width="520" height="860" rx="22" fill="url(#iron)" stroke="#5c2025" stroke-width="2"/>
    <rect x="18" y="18" width="484" height="824" rx="12" fill="#050505" opacity=".72" stroke="#8d3037" stroke-width="1.5"/>
    <text x="28" y="58" fill="#ff626c" class="label" font-size="19">A · Black Iron Blood-Runes</text>
    <text x="28" y="91" fill="#b9aaa7" class="body small">Most aggressive. Best for danger clarity.</text>

    <g transform="translate(28 126)">
      <path d="M0 34 20 0h330l20 34-20 34H20Z" fill="#0a0909" stroke="#a33a42" stroke-width="2"/>
      <path d="M34 8v52M72 8l-20 52M112 8l20 52M302 8v52" stroke="#642027" stroke-width="2"/>
      <text x="34" y="42" fill="#f4dedc" class="title" font-size="25">RELIQUARY</text>
      <text x="270" y="42" fill="#e74751" class="rune" font-size="24">ᚱ ᚨ</text>
    </g>

    <g transform="translate(28 225)">
      <rect width="408" height="210" fill="#070707" stroke="#6c252b"/>
      <path d="M0 0h408M0 210h408" stroke="#c44b54" stroke-width="2"/>
      <path d="M16 16h42l-20 20 20 20H16Z" fill="#1b1011" stroke="#c04a52"/>
      <path d="M350 16h42l-20 20 20 20h-42Z" fill="#1b1011" stroke="#c04a52"/>
      <text x="126" y="44" fill="#c7b7af" class="label" font-size="12">Rare Body Armour</text>
      <text x="82" y="80" fill="#d7c6be" class="title" font-size="27">WOLFSKIN MANTLE</text>
      <line x1="62" y1="116" x2="346" y2="116" stroke="#392126"/>
      <text x="120" y="148" fill="#aeb8ff" class="mono" font-size="18">+73 to Maximum Life</text>
      <text x="82" y="180" fill="#ff626c" class="mono" font-size="17">RISK: Shocked Ground</text>
    </g>

    <g transform="translate(28 470)">
      <rect width="456" height="54" fill="#080707" stroke="#a0373f"/>
      <rect x="350" y="9" width="78" height="36" rx="6" fill="#2a080a" stroke="#ff4d58" filter="url(#red-glow)"/>
      <text x="18" y="25" fill="#fff4ef" class="mono" font-size="17">Riverhold</text>
      <text x="18" y="44" fill="#ffc04e" class="mono" font-size="13">OCR 11 mods · 0:16</text>
      <text x="144" y="35" fill="#68ef75" class="mono" font-size="13">R 18%</text>
      <text x="216" y="35" fill="#70a9ff" class="mono" font-size="13">PACK 4%</text>
      <text x="366" y="33" fill="#fff4ef" class="label" font-size="14">OPEN</text>
    </g>

    <g transform="translate(28 570)">
      <circle cx="25" cy="30" r="24" fill="#0c090a" stroke="#9d353d"/>
      <path d="M16 30h18M25 20v20M36 20l-22 22" stroke="#f7d2d5" stroke-width="3" stroke-linecap="round"/>
      <circle cx="25" cy="92" r="24" fill="#0c090a" stroke="#9d353d"/>
      <path d="M15 88h22M15 96h22M20 82l-7 7 7 7M32 82l7 7-7 7" stroke="#f7d2d5" stroke-width="3" stroke-linecap="round"/>
      <path d="M25 55v12M25 117v12" stroke="#9d353d"/>
      <text x="72" y="34" fill="#d3c5c0" class="body" font-size="18">Runestone spine: sharper, martial</text>
      <text x="72" y="96" fill="#d3c5c0" class="body" font-size="18">Best for warning-heavy identity</text>
    </g>

    <g transform="translate(28 745)">
      <text x="0" y="0" fill="#e74751" class="label" font-size="14">Core Tokens</text>
      <text x="0" y="34" fill="#ddd0ca" class="body" font-size="19">Black iron / blood red / hard notches / angular cuts</text>
    </g>
  </g>

  <!-- Direction B -->
  <g transform="translate(640 170)" filter="url(#soft-shadow)">
    <rect width="520" height="860" rx="22" fill="url(#stone)" stroke="#287e92" stroke-width="2"/>
    <rect x="18" y="18" width="484" height="824" rx="12" fill="#030607" opacity=".75" stroke="#42c9ef" stroke-width="1.5"/>
    <text x="28" y="58" fill="#7dd6ff" class="label" font-size="19">B · Frosted Stone Blue-White</text>
    <text x="28" y="91" fill="#b7c8cc" class="body small">Calmest. Best for readable mystic utility.</text>

    <g transform="translate(28 126)">
      <path d="M0 34 18 0h330l18 34-18 34H18Z" fill="#071013" stroke="#60d9ff" stroke-width="2"/>
      <path d="M28 9l20 50M76 9v50M116 9l-16 50M296 9v50" stroke="#2b8295" stroke-width="2"/>
      <text x="34" y="42" fill="#f4fbff" class="title" font-size="25">RELIQUARY</text>
      <text x="276" y="42" fill="#88e4ff" class="rune" font-size="24">ᛁ ᛉ</text>
    </g>

    <g transform="translate(28 225)">
      <rect width="408" height="210" fill="#040708" stroke="#2b8295"/>
      <path d="M0 0h408M0 210h408" stroke="#62dfff" stroke-width="2"/>
      <path d="M20 16 43 39 20 62-3 39Z" fill="#0d1c21" stroke="#7edcff" filter="url(#frost-glow)"/>
      <path d="M388 16 411 39 388 62 365 39Z" fill="#0d1c21" stroke="#7edcff" filter="url(#frost-glow)"/>
      <text x="126" y="44" fill="#a8cbd3" class="label" font-size="12">Magic Armour</text>
      <text x="86" y="80" fill="#ddeeff" class="title" font-size="27">WOLFSKIN MANTLE</text>
      <line x1="62" y1="116" x2="346" y2="116" stroke="#18363d"/>
      <text x="120" y="148" fill="#b6c6ff" class="mono" font-size="18">+73 to Maximum Life</text>
      <text x="90" y="180" fill="#7dd6ff" class="mono" font-size="17">OCR: Frost line confirmed</text>
    </g>

    <g transform="translate(28 470)">
      <rect width="456" height="54" fill="#040708" stroke="#42c9ef"/>
      <rect x="350" y="9" width="78" height="36" rx="6" fill="#061318" stroke="#70dcff" filter="url(#frost-glow)"/>
      <text x="18" y="25" fill="#f2fbff" class="mono" font-size="17">Riverhold</text>
      <text x="18" y="44" fill="#a7efff" class="mono" font-size="13">OCR 11 mods · 0:16</text>
      <text x="144" y="35" fill="#68ef75" class="mono" font-size="13">R 18%</text>
      <text x="216" y="35" fill="#70a9ff" class="mono" font-size="13">PACK 4%</text>
      <text x="366" y="33" fill="#f7fdff" class="label" font-size="14">OPEN</text>
    </g>

    <g transform="translate(28 570)">
      <circle cx="25" cy="30" r="24" fill="#061013" stroke="#42c9ef"/>
      <path d="M16 30h18M25 20v20M36 20l-22 22" stroke="#ecfbff" stroke-width="3" stroke-linecap="round"/>
      <circle cx="25" cy="92" r="24" fill="#061013" stroke="#42c9ef"/>
      <path d="M15 88h22M15 96h22M20 82l-7 7 7 7M32 82l7 7-7 7" stroke="#ecfbff" stroke-width="3" stroke-linecap="round"/>
      <path d="M25 55v12M25 117v12" stroke="#42c9ef"/>
      <text x="72" y="34" fill="#d2e1e4" class="body" font-size="18">Frost-rune spine: quiet, precise</text>
      <text x="72" y="96" fill="#d2e1e4" class="body" font-size="18">Best for long sessions / low glare</text>
    </g>

    <g transform="translate(28 745)">
      <text x="0" y="0" fill="#7dd6ff" class="label" font-size="14">Core Tokens</text>
      <text x="0" y="34" fill="#dce9ec" class="body" font-size="19">Charcoal stone / frost incisions / blue-white glints</text>
    </g>
  </g>

  <!-- Direction C -->
  <g transform="translate(1226 170)" filter="url(#soft-shadow)">
    <rect width="520" height="860" rx="22" fill="url(#bone)" stroke="#9d7d42" stroke-width="2"/>
    <rect x="18" y="18" width="484" height="824" rx="12" fill="#060504" opacity=".76" stroke="#d8b66b" stroke-width="1.5"/>
    <text x="28" y="58" fill="#e3c678" class="label" font-size="19">C · Bone-Gold Runic Relic</text>
    <text x="28" y="91" fill="#c9bda2" class="body small">Closest to current Reliquary ornament.</text>

    <g transform="translate(28 126)">
      <path d="M0 34 20 0h330l20 34-20 34H20Z" fill="#0b0905" stroke="#d0aa5f" stroke-width="2"/>
      <path d="M34 8v52M70 8l22 52M124 8l-20 52M302 8v52" stroke="#7c6132" stroke-width="2"/>
      <text x="34" y="42" fill="#fff2ce" class="title" font-size="25">RELIQUARY</text>
      <text x="274" y="42" fill="#d8b66b" class="rune" font-size="24">ᚷ ᛟ</text>
    </g>

    <g transform="translate(28 225)">
      <rect width="408" height="210" fill="#070604" stroke="#9d7d42"/>
      <path d="M0 0h408M0 210h408" stroke="#d8b66b" stroke-width="2"/>
      <path d="M16 18h44l-22 36Z" fill="#181008" stroke="#d8b66b" filter="url(#gold-glow)"/>
      <path d="M348 18h44l-22 36Z" fill="#181008" stroke="#d8b66b" filter="url(#gold-glow)"/>
      <text x="126" y="44" fill="#cbb277" class="label" font-size="12">Rare Body Armour</text>
      <text x="82" y="80" fill="#f1d67c" class="title" font-size="27">WOLFSKIN MANTLE</text>
      <line x1="62" y1="116" x2="346" y2="116" stroke="#382a12"/>
      <text x="120" y="148" fill="#b6c6ff" class="mono" font-size="18">+73 to Maximum Life</text>
      <text x="88" y="180" fill="#e3c678" class="mono" font-size="17">Relic frame / catalog tone</text>
    </g>

    <g transform="translate(28 470)">
      <rect width="456" height="54" fill="#070604" stroke="#d8b66b"/>
      <rect x="350" y="9" width="78" height="36" rx="6" fill="#171006" stroke="#d8b66b" filter="url(#gold-glow)"/>
      <text x="18" y="25" fill="#fff2ce" class="mono" font-size="17">Riverhold</text>
      <text x="18" y="44" fill="#e3c678" class="mono" font-size="13">OCR 11 mods · 0:16</text>
      <text x="144" y="35" fill="#68ef75" class="mono" font-size="13">R 18%</text>
      <text x="216" y="35" fill="#70a9ff" class="mono" font-size="13">PACK 4%</text>
      <text x="366" y="33" fill="#fff2ce" class="label" font-size="14">OPEN</text>
    </g>

    <g transform="translate(28 570)">
      <circle cx="25" cy="30" r="24" fill="#0b0905" stroke="#d8b66b"/>
      <path d="M16 30h18M25 20v20M36 20l-22 22" stroke="#fff2ce" stroke-width="3" stroke-linecap="round"/>
      <circle cx="25" cy="92" r="24" fill="#0b0905" stroke="#d8b66b"/>
      <path d="M15 88h22M15 96h22M20 82l-7 7 7 7M32 82l7 7-7 7" stroke="#fff2ce" stroke-width="3" stroke-linecap="round"/>
      <path d="M25 55v12M25 117v12" stroke="#d8b66b"/>
      <text x="72" y="34" fill="#ded0ac" class="body" font-size="18">Relic spine: familiar, warmer</text>
      <text x="72" y="96" fill="#ded0ac" class="body" font-size="18">Best if we keep current ornament DNA</text>
    </g>

    <g transform="translate(28 745)">
      <text x="0" y="0" fill="#e3c678" class="label" font-size="14">Core Tokens</text>
      <text x="0" y="34" fill="#e8dcbf" class="body" font-size="19">Bone separators / antique gold / catalog-relic trim</text>
    </g>
  </g>

  <g transform="translate(72 1060)">
    <text fill="#b8aaa5" class="body" font-size="20">Recommendation: pick A for sharper combat identity, B for cleanest long-session readability, C for least disruptive migration from current Reliquary.</text>
  </g>
</svg>
