<svg xmlns="http://www.w3.org/2000/svg" width="1600" height="1200" viewBox="0 0 1600 1200">
  <defs>
    <linearGradient id="bg" x1="0" y1="0" x2="1" y2="1">
      <stop stop-color="#030506"/>
      <stop offset="0.38" stop-color="#071011"/>
      <stop offset="0.68" stop-color="#050607"/>
      <stop offset="1" stop-color="#010202"/>
    </linearGradient>
    <radialGradient id="accent-haze" cx="72%" cy="16%" r="70%">
      <stop stop-color="#2bd7c4" stop-opacity="0.22"/>
      <stop offset="0.34" stop-color="#2bd7c4" stop-opacity="0.08"/>
      <stop offset="1" stop-color="#2bd7c4" stop-opacity="0"/>
    </radialGradient>
    <radialGradient id="danger-haze" cx="8%" cy="72%" r="60%">
      <stop stop-color="#ff465a" stop-opacity="0.16"/>
      <stop offset="0.34" stop-color="#ff465a" stop-opacity="0.05"/>
      <stop offset="1" stop-color="#ff465a" stop-opacity="0"/>
    </radialGradient>
    <linearGradient id="iron-panel" x1="0" y1="0" x2="1" y2="1">
      <stop stop-color="#071012" stop-opacity="0.96"/>
      <stop offset="0.5" stop-color="#030606" stop-opacity="0.98"/>
      <stop offset="1" stop-color="#09090a" stop-opacity="0.96"/>
    </linearGradient>
    <linearGradient id="stone-panel" x1="0" y1="0" x2="1" y2="1">
      <stop stop-color="#0a1516"/>
      <stop offset="0.52" stop-color="#050909"/>
      <stop offset="1" stop-color="#0c0a08"/>
    </linearGradient>
    <linearGradient id="rare-banner" x1="0" y1="0" x2="1" y2="0">
      <stop stop-color="#0b0b0a"/>
      <stop offset="0.18" stop-color="#312911"/>
      <stop offset="0.5" stop-color="#17130a"/>
      <stop offset="0.82" stop-color="#312911"/>
      <stop offset="1" stop-color="#0b0b0a"/>
    </linearGradient>
    <pattern id="iron-grain" width="80" height="80" patternUnits="userSpaceOnUse">
      <path d="M8 14h1M27 44h1M71 19h1M62 69h1M38 7h1M15 75h1" stroke="#ffffff" opacity="0.11"/>
      <path d="M3 32h30M42 30h27M12 58h58" stroke="#ffffff" opacity="0.025"/>
      <path d="M0 0l80 80M80 0 0 80" stroke="#2bd7c4" opacity="0.015"/>
    </pattern>
    <filter id="panel-shadow" x="-10%" y="-10%" width="120%" height="120%">
      <feDropShadow dx="0" dy="18" stdDeviation="18" flood-color="#000000" flood-opacity="0.58"/>
    </filter>
    <filter id="accent-glow" x="-30%" y="-30%" width="160%" height="160%">
      <feDropShadow dx="0" dy="0" stdDeviation="4" flood-color="#2bd7c4" flood-opacity="0.72"/>
      <feDropShadow dx="0" dy="0" stdDeviation="13" flood-color="#2bd7c4" flood-opacity="0.26"/>
    </filter>
    <filter id="danger-glow" x="-30%" y="-30%" width="160%" height="160%">
      <feDropShadow dx="0" dy="0" stdDeviation="4" flood-color="#ff465a" flood-opacity="0.82"/>
      <feDropShadow dx="0" dy="0" stdDeviation="13" flood-color="#ff465a" flood-opacity="0.36"/>
    </filter>
    <filter id="gold-glow" x="-30%" y="-30%" width="160%" height="160%">
      <feDropShadow dx="0" dy="0" stdDeviation="4" flood-color="#d8b66b" flood-opacity="0.64"/>
      <feDropShadow dx="0" dy="0" stdDeviation="12" flood-color="#d8b66b" flood-opacity="0.20"/>
    </filter>
    <style>
      .brand { font-family: Georgia, "Times New Roman", serif; font-weight: 800; letter-spacing: .24em; }
      .rune { font-family: Georgia, "Times New Roman", serif; font-weight: 800; letter-spacing: .12em; }
      .ui { font-family: "Segoe UI", Aptos, sans-serif; }
      .mono { font-family: Consolas, "Cascadia Mono", monospace; font-weight: 700; }
      .cap { font-family: Consolas, "Cascadia Mono", monospace; font-weight: 900; letter-spacing: .15em; text-transform: uppercase; }
      .small { font-size: 16px; }
      .muted { fill: #9aa7a6; }
      .vellum { fill: #eee3d8; }
      .accent { fill: #2bd7c4; }
      .danger { fill: #ff465a; }
      .gold { fill: #d8b66b; }
      .blue { fill: #aeb8ff; }
      .line { fill: none; stroke: #2bd7c4; stroke-width: 2; vector-effect: non-scaling-stroke; }
      .line-dim { fill: none; stroke: #2bd7c4; stroke-width: 1; opacity: .33; vector-effect: non-scaling-stroke; }
      .danger-line { fill: none; stroke: #ff465a; stroke-width: 2; vector-effect: non-scaling-stroke; }
      .gold-line { fill: none; stroke: #d8b66b; stroke-width: 2; vector-effect: non-scaling-stroke; }
      .stone { fill: url(#stone-panel); stroke: #2bd7c4; stroke-width: 1.4; }
      .button { fill: #071011; stroke: #2bd7c4; stroke-width: 1.5; }
      .button-danger { fill: #160506; stroke: #ff465a; stroke-width: 1.5; }
    </style>
  </defs>

  <rect width="1600" height="1200" fill="url(#bg)"/>
  <rect width="1600" height="1200" fill="url(#accent-haze)"/>
  <rect width="1600" height="1200" fill="url(#danger-haze)"/>
  <rect width="1600" height="1200" fill="url(#iron-grain)" opacity="0.8"/>

  <!-- outer app shell -->
  <g transform="translate(72 56)" filter="url(#panel-shadow)">
    <path d="M0 34 34 0h1392l34 34v1018l-34 34H34L0 1052Z" fill="url(#iron-panel)" stroke="#2bd7c4" stroke-width="2"/>
    <path d="M15 44 44 15h1372l29 29v998l-29 29H44l-29-29Z" fill="none" stroke="#2bd7c4" stroke-opacity=".28"/>
    <path d="M42 15h230M1188 15h230M42 1071h230M1188 1071h230" class="line" opacity=".7"/>
    <path d="M15 180v260M15 650v260M1445 180v260M1445 650v260" class="line-dim"/>

    <!-- runic corner bindings -->
    <g class="rune" font-size="18" fill="#2bd7c4" opacity=".72">
      <text x="50" y="42">ᚱ ᛁ ᛚ ᛁ ᚲ</text>
      <text x="1260" y="42">ᛁ ᚱ ᛟ ᚾ</text>
      <text x="50" y="1048">ᚹ ᚨ ᚱ ᛞ</text>
      <text x="1268" y="1048">ᛊ ᛏ ᛟ ᚾ ᛖ</text>
    </g>

    <!-- header -->
    <text x="40" y="70" class="brand vellum" font-size="32">RELIQUARY</text>
    <text x="42" y="101" class="cap accent" font-size="13">HEART OF THE TRIBE</text>
    <path d="M40 119h410" class="line" opacity=".82"/>
    <path d="M472 119h36l18-16 18 16h36" class="line-dim"/>

    <g transform="translate(1064 48)">
      <rect width="232" height="48" rx="24" class="button"/>
      <text x="26" y="31" class="mono vellum" font-size="17">Fate of the Vaal</text>
      <path d="M198 18l10 10 10-10" class="line" stroke-linecap="round" stroke-linejoin="round"/>
      <circle cx="322" cy="24" r="24" class="button"/>
      <text x="315" y="30" class="mono accent" font-size="20">_</text>
      <circle cx="380" cy="24" r="24" class="button"/>
      <text x="374" y="31" class="mono accent" font-size="20">x</text>
    </g>

    <!-- floating spine -->
    <g transform="translate(-38 230)">
      <path d="M38 0v560" class="line-dim"/>
      <g filter="url(#accent-glow)">
        <path d="M38 0 70 30 38 60 6 30Z" fill="#061112" stroke="#2bd7c4" stroke-width="2"/>
        <path d="M24 30h28M38 16v28M50 18l-24 24" stroke="#e6ffff" stroke-width="3" stroke-linecap="round"/>
      </g>
      <g transform="translate(0 96)">
        <path d="M38 0 70 30 38 60 6 30Z" fill="#061112" stroke="#2bd7c4" stroke-width="2" opacity=".88"/>
        <path d="M25 23h26M25 37h26M31 17l-10 13 10 13M45 17l10 13-10 13" stroke="#d7ffff" stroke-width="2.5" stroke-linecap="round"/>
      </g>
      <g transform="translate(0 192)">
        <path d="M38 0 70 30 38 60 6 30Z" fill="#061112" stroke="#2bd7c4" stroke-width="2" opacity=".88"/>
        <path d="M26 17h24v32H26zM30 23h16M30 31h16M30 39h16" stroke="#d7ffff" stroke-width="2.2" fill="none"/>
      </g>
      <g transform="translate(0 288)">
        <path d="M38 0 70 30 38 60 6 30Z" fill="#061112" stroke="#2bd7c4" stroke-width="2" opacity=".88"/>
        <path d="M38 15v30M24 30h28M29 20l18 20M47 20 29 40" stroke="#d7ffff" stroke-width="2.2" stroke-linecap="round"/>
      </g>
      <g transform="translate(0 384)">
        <path d="M38 0 70 30 38 60 6 30Z" fill="#061112" stroke="#2bd7c4" stroke-width="2" opacity=".88"/>
        <circle cx="38" cy="30" r="13" fill="none" stroke="#d7ffff" stroke-width="2.2"/>
        <path d="M38 15v8M38 37v8M23 30h8M45 30h8" stroke="#d7ffff" stroke-width="2.2"/>
      </g>
    </g>

    <!-- item banner -->
    <g transform="translate(64 146)">
      <path d="M0 0h820l28 42-28 42H0l28-42Z" fill="url(#rare-banner)" stroke="#d8b66b" stroke-width="2"/>
      <path d="M18 12h790M18 72h790" class="gold-line" opacity=".9"/>
      <path d="M62 8l-44 34 44 34M760 8l44 34-44 34" fill="none" stroke="#d8b66b" stroke-width="2.4"/>
      <path d="M42 21l19 21-19 21M782 21l-19 21 19 21" fill="none" stroke="#d8b66b" stroke-width="2"/>
      <g class="rune gold" font-size="15" opacity=".72">
        <text x="120" y="26">ᚱ ᚨ ᚱ ᛖ   ᛏ ᚨ ᛚ ᛁ ᛊ ᛗ ᚨ ᚾ ᛊ</text>
        <text x="592" y="26">ᚷ ᛟ ᛚ ᛞ</text>
      </g>
      <text x="264" y="56" class="brand gold" font-size="30">MAJI TALISMAN</text>
    </g>

    <!-- scan item card -->
    <g transform="translate(64 250)">
      <path d="M0 22 22 0h820l22 22v584l-22 22H22L0 606Z" fill="#020404" fill-opacity=".82" stroke="#2bd7c4" stroke-opacity=".55"/>
      <rect x="20" y="20" width="824" height="588" fill="none" stroke="#2bd7c4" stroke-opacity=".16"/>
      <text x="164" y="58" class="mono vellum" font-size="17">Item Level: 81</text>
      <text x="344" y="58" class="mono vellum" font-size="17">Requires Level: 79</text>
      <text x="564" y="58" class="mono vellum" font-size="17">Sockets: 2</text>
      <text x="338" y="112" class="mono muted" font-size="16">Quality</text>
      <text x="420" y="112" class="mono blue" font-size="16">21%</text>
      <text x="286" y="144" class="mono muted" font-size="16">Physical Damage</text>
      <text x="442" y="144" class="mono blue" font-size="16">304-514</text>
      <text x="306" y="176" class="mono muted" font-size="16">Critical Hit Chance</text>
      <text x="494" y="176" class="mono blue" font-size="16">8.00%</text>
      <text x="296" y="208" class="mono muted" font-size="16">Attacks Per Second</text>
      <text x="482" y="208" class="mono blue" font-size="16">1.44</text>

      <g transform="translate(238 252)">
        <text x="110" y="0" class="cap muted" font-size="13">RUNE MODS</text>
        <text x="-24" y="46" class="mono vellum" font-size="17">T3</text>
        <text x="4" y="46" class="mono danger" font-size="17">R</text>
        <text x="58" y="46" class="mono blue" font-size="17">18% Increased Physical Damage (Rune)</text>
        <text x="-80" y="84" class="mono vellum" font-size="17">T1</text>
        <text x="-50" y="84" class="mono danger" font-size="17">R</text>
        <text x="20" y="84" class="mono blue" font-size="17">Gain 5% of Damage as Extra Damage of all Elements (Rune)</text>
      </g>

      <g transform="translate(170 402)">
        <text x="246" y="-42" class="cap muted" font-size="13">ITEM MODS</text>
        <text x="86" y="0" class="mono gold" font-size="16">T2?</text>
        <text x="124" y="0" class="mono gold" font-size="16">P1</text>
        <rect x="172" y="-20" width="276" height="30" fill="#30325c" stroke="#aeb8ff"/>
        <text x="184" y="1" class="mono blue" font-size="17">158% Increased Physical Damage</text>
        <text x="78" y="46" class="mono gold" font-size="16">T3?</text>
        <text x="124" y="46" class="mono gold" font-size="16">P2</text>
        <text x="172" y="46" class="mono blue" font-size="17">Adds 30 to 40 Physical Damage</text>
        <text x="108" y="92" class="mono vellum" font-size="16">T1</text>
        <text x="142" y="92" class="mono danger" font-size="16">E</text>
        <rect x="172" y="72" width="286" height="30" fill="#37422f" stroke="#d8b66b" filter="url(#gold-glow)"/>
        <text x="184" y="93" class="mono gold" font-size="17">+5 to Level of all Attack Skills</text>
        <text x="84" y="138" class="mono vellum" font-size="16">T1?</text>
        <text x="124" y="138" class="mono blue" font-size="16">S1</text>
        <text x="172" y="138" class="mono blue" font-size="17">15% Increased Attack Speed</text>
      </g>

      <g transform="translate(244 560)">
        <circle cx="0" cy="0" r="10" fill="#2bd7c4" filter="url(#accent-glow)"/>
        <text x="18" y="6" class="mono vellum" font-size="16">Quick Price</text>
        <circle cx="164" cy="0" r="10" fill="#f3f1ec"/>
        <text x="182" y="6" class="mono vellum" font-size="16">Exact Match</text>
        <circle cx="342" cy="0" r="10" fill="#f3f1ec"/>
        <text x="360" y="6" class="mono vellum" font-size="16">Broad (-10%)</text>
      </g>
    </g>

    <!-- price card -->
    <g transform="translate(64 904)">
      <path d="M0 18 18 0h820l18 18v128l-18 18H18L0 146Z" fill="#060505" stroke="#2bd7c4" stroke-opacity=".7"/>
      <text x="352" y="44" class="cap accent" font-size="15">ESTIMATED VALUE</text>
      <text x="374" y="88" class="mono vellum" font-size="32">~ 20</text>
      <circle cx="470" cy="79" r="16" fill="#6d5830" stroke="#d8b66b"/>
      <text x="276" y="124" class="mono vellum" font-size="17">Range: 10-25 exalted</text>
      <text x="498" y="124" class="mono" fill="#9ee079" font-size="18">Reliability: High</text>
      <rect x="714" y="54" width="98" height="38" rx="19" class="button"/>
      <text x="735" y="78" class="cap vellum" font-size="12">COPY</text>
    </g>

    <!-- market card -->
    <g transform="translate(948 250)">
      <path d="M0 22 22 0h410l22 22v674l-22 22H22L0 696Z" fill="#020404" fill-opacity=".84" stroke="#2bd7c4" stroke-opacity=".55"/>
      <text x="32" y="52" class="cap accent" font-size="16">MARKET ROW SAMPLE</text>
      <text x="32" y="90" class="brand vellum" font-size="30">Trade Feed</text>
      <text x="32" y="124" class="ui muted" font-size="19">Dense data keeps readable surfaces.</text>
      <g transform="translate(32 170)">
        <rect width="390" height="54" fill="#101a18" stroke="#2bd7c4" stroke-opacity=".28"/>
        <text x="18" y="34" class="cap vellum" font-size="13">Price</text>
        <text x="146" y="34" class="cap vellum" font-size="13">ilvl</text>
        <text x="222" y="34" class="cap vellum" font-size="13">Q%</text>
        <text x="302" y="34" class="cap vellum" font-size="13">Listed</text>
        <g transform="translate(0 70)">
          <rect width="390" height="54" fill="#070908"/>
          <text x="18" y="34" class="mono gold" font-size="17">5 EXALTED</text>
          <text x="154" y="34" class="mono vellum" font-size="17">82</text>
          <text x="224" y="34" class="mono vellum" font-size="17">21%</text>
          <text x="304" y="34" class="mono vellum" font-size="17">2d</text>
        </g>
        <g transform="translate(0 124)">
          <rect width="390" height="54" fill="#0c0d0b"/>
          <text x="18" y="34" class="mono gold" font-size="17">10 EXALTED</text>
          <text x="154" y="34" class="mono vellum" font-size="17">81</text>
          <text x="224" y="34" class="mono vellum" font-size="17">20%</text>
          <text x="304" y="34" class="mono vellum" font-size="17">7d</text>
        </g>
      </g>
      <g transform="translate(32 450)">
        <text x="0" y="0" class="cap danger" font-size="14">DANGER STILL OWNS RED</text>
        <rect x="0" y="22" width="390" height="76" fill="#140405" stroke="#ff465a" filter="url(#danger-glow)" opacity=".95"/>
        <text x="18" y="55" class="mono vellum" font-size="16">Risk: Cannot recharge Energy Shield</text>
      </g>
      <g transform="translate(32 600)">
        <text x="0" y="0" class="cap accent" font-size="14">SETTINGS HUE ACCENT</text>
        <text x="0" y="32" class="ui muted" font-size="18">All cyan marks are user hue-driven.</text>
      </g>
    </g>

    <!-- line mode concept -->
    <g transform="translate(64 1104)">
      <rect width="840" height="58" fill="#040707" stroke="#2bd7c4" stroke-width="2"/>
      <path d="M0 0h840" class="line"/>
      <text x="16" y="24" class="mono vellum" font-size="19">Riverhold</text>
      <text x="16" y="45" class="mono gold" font-size="15">OCR 11 mods | 0:16</text>
      <rect x="226" y="12" width="76" height="24" rx="12" fill="#07140e" stroke="#46e66f"/>
      <text x="244" y="29" class="mono" fill="#77f08d" font-size="14">R 18%</text>
      <rect x="318" y="12" width="96" height="24" rx="12" fill="#071018" stroke="#58a9ff"/>
      <text x="335" y="29" class="mono" fill="#83bdff" font-size="14">PACK 4%</text>
      <rect x="430" y="12" width="98" height="24" rx="12" fill="#181207" stroke="#e6bd43"/>
      <text x="446" y="29" class="mono" fill="#f7d75f" font-size="14">RARE 18%</text>
      <rect x="542" y="12" width="214" height="24" fill="#10090b" stroke="#ff465a" stroke-opacity=".42"/>
      <text x="552" y="29" class="mono danger" font-size="14">RISK: SHOCKED GROUND</text>
      <rect x="766" y="8" width="60" height="42" rx="10" class="button-danger"/>
      <text x="780" y="34" class="cap vellum" font-size="12">OPEN</text>
    </g>
  </g>

  <g transform="translate(1028 1046)">
    <text x="0" y="0" class="cap accent" font-size="15">Implementation Notes</text>
    <text x="0" y="34" class="ui muted" font-size="19">Full runic geometry, but functional text stays normal.</text>
    <text x="0" y="62" class="ui muted" font-size="19">Cyan = user hue. Red = warning only. Rarity colors unchanged.</text>
  </g>
</svg>
